<svg width="75" height="92" viewBox="0 0 75 92" fill="none" xmlns="http://www.w3.org/2000/svg">
<g clip-path="url(#clip0_841_2605)">
<mask id="mask0_841_2605" style="mask-type:luminance" maskUnits="userSpaceOnUse" x="-268" y="-188" width="774" height="468">
<path d="M-267.855 -187.573H505.359V279.572H-267.855V-187.573Z" fill="white"/>
</mask>
<g mask="url(#mask0_841_2605)">
<path d="M45.4465 43.495C45.1519 43.5887 44.8481 43.6335 44.5535 43.6335C43.982 43.6335 43.4285 43.4637 42.9463 43.1511C43.4195 43.8836 43.5626 44.7902 43.2903 45.6476L37.2541 64.9503L31.2137 45.6476C30.9457 44.7902 31.0842 43.8836 31.5574 43.1511C31.0798 43.4637 30.5216 43.6335 29.9504 43.6335C29.6556 43.6335 29.352 43.5887 29.0618 43.495L9.76187 37.4522L29.0618 31.4095C29.352 31.3201 29.6556 31.2756 29.9504 31.2756C30.5216 31.2756 31.0798 31.4407 31.5574 31.7536C31.0842 31.0211 30.9457 30.1142 31.2137 29.2568L37.2541 9.95418L43.2903 29.2568C43.5626 30.1142 43.4195 31.0211 42.9463 31.7536C43.4241 31.4407 43.982 31.2756 44.5535 31.2756C44.8527 31.2756 45.1519 31.3201 45.4465 31.4095L64.7421 37.4522L45.4465 43.495ZM68.41 39.9156L74.5555 37.4571L67.8838 43.7541L67.6093 44.0088C67.5167 44.4423 67.4141 44.8823 67.3017 45.3358C64.8409 55.0576 58.3875 61.3975 48.6232 71.0001C45.2293 74.3388 41.3825 78.1143 37.2544 82.5052C33.1266 78.1143 29.2796 74.3388 25.8859 71.0001C16.1216 61.3975 9.6682 55.0576 7.20738 45.3358C7.09498 44.8823 6.99236 44.4423 6.89978 44.0088L6.6253 43.7541L-0.0463899 37.4571L6.09942 39.9156L6.32421 40.0049L26.5972 48.1186L37.2544 74.782L47.9119 48.1186L68.1849 40.0049L68.41 39.9156ZM61.0204 8.67252C60.5241 8.26213 60.0346 7.88841 59.6046 7.5606C54.2792 3.58334 48.1302 1.14142 41.6274 0.386925C40.3671 0.264435 39.0009 0.188393 37.5324 0.178337H36.9767C35.5082 0.188393 34.142 0.264435 32.8817 0.386925C26.3789 1.14142 20.2299 3.58334 14.9042 7.5606C14.4745 7.88841 13.985 8.26213 13.4887 8.67252C12.5691 9.43353 11.6794 10.2442 10.8359 11.0848C3.77733 18.1493 -0.109375 27.5403 -0.109375 37.5234V37.5731C-0.0860265 38.7939 -0.0265688 42.5099 1.08493 46.8877C3.98231 58.32 11.3121 65.5269 21.457 75.5001C25.4857 79.4611 30.0503 83.9544 35.0086 89.3681L37.2544 91.8198L39.5005 89.3681C44.4588 83.9544 49.0234 79.4611 53.0521 75.5001C63.197 65.5269 70.5268 58.32 73.4244 46.8877C74.5357 42.5099 74.5951 38.7939 74.6185 37.5731V37.5234C74.6185 27.5403 70.7318 18.1493 63.6732 11.0848C62.8297 10.2442 61.94 9.43353 61.0204 8.67252Z" fill="#1A2A4F"/>
</g>
<mask id="mask1_841_2605" style="mask-type:luminance" maskUnits="userSpaceOnUse" x="-268" y="-188" width="774" height="468">
<path d="M-267.855 -187.573H505.359V279.572H-267.855V-187.573Z" fill="white"/>
</mask>
<g mask="url(#mask1_841_2605)">
<path d="M37.2636 35.2103V15.3224L37.2546 15.2868L32.7321 29.7349C32.576 30.2306 32.7098 30.7621 33.0804 31.1238L37.2546 35.2192L37.2636 35.2103Z" fill="#FF6B35"/>
</g>
<mask id="mask2_841_2605" style="mask-type:luminance" maskUnits="userSpaceOnUse" x="-268" y="-188" width="774" height="468">
<path d="M-267.855 -187.573H505.359V279.572H-267.855V-187.573Z" fill="white"/>
</mask>
<g mask="url(#mask2_841_2605)">
<path d="M44.5559 32.8658C44.1899 32.8658 43.8416 33.0133 43.5826 33.2811L39.4844 37.4525L39.4977 37.4658H59.3781L59.4136 37.4525L44.9713 32.9329C44.8371 32.8881 44.6943 32.8658 44.5559 32.8658Z" fill="#FF6B35"/>
</g>
<mask id="mask3_841_2605" style="mask-type:luminance" maskUnits="userSpaceOnUse" x="-268" y="-188" width="774" height="468">
<path d="M-267.855 -187.573H505.359V279.572H-267.855V-187.573Z" fill="white"/>
</mask>
<g mask="url(#mask3_841_2605)">
<path d="M37.2578 39.6857V59.6182L41.7757 45.1747C41.9321 44.679 41.7983 44.1475 41.4277 43.7811L37.2578 39.6857Z" fill="#FF6B35"/>
</g>
<mask id="mask4_841_2605" style="mask-type:luminance" maskUnits="userSpaceOnUse" x="-268" y="-188" width="774" height="468">
<path d="M-267.855 -187.573H505.359V279.572H-267.855V-187.573Z" fill="white"/>
</mask>
<g mask="url(#mask4_841_2605)">
<path d="M29.5403 41.9766C29.6788 42.0168 29.8172 42.0391 29.9557 42.0391C30.3217 42.0391 30.6697 41.8919 30.9287 41.6281L35.0272 37.4523H15.0977L29.5403 41.9766Z" fill="#FF6B35"/>
</g>
</g>
<defs>
<clipPath id="clip0_841_2605">
<rect width="75" height="92" fill="white"/>
</clipPath>
</defs>
</svg>
