<svg width="33" height="34" viewBox="0 0 33 34" fill="none" xmlns="http://www.w3.org/2000/svg">
<path d="M26.5676 24.1186C29.8573 27.5599 33.2849 32.3513 32.534 33.0571C31.783 33.7629 27.1485 30.1414 23.8612 26.6816C23.5666 26.3608 23.2696 26.0585 22.9909 25.7586C22.3313 25.7828 20.9568 25.8237 19.2065 25.8705C19.2249 25.8729 19.2617 25.8779 19.2802 25.8803L20.1689 26.8058C20.2855 26.9152 20.2583 27.1178 20.1121 27.2295L19.21 28.0839C19.0797 28.2164 18.8905 28.2286 18.7764 28.1008L17.8877 27.1753C17.8877 27.1753 17.8288 27.0549 17.8202 26.9787L16.783 25.9021C15.2955 25.9466 13.6766 25.9923 12.076 26.0404L12.9488 26.945C13.0654 27.0544 13.0383 27.257 12.892 27.3687L11.9899 28.223C11.8596 28.3556 11.6705 28.3678 11.5563 28.24L10.6676 27.3145C10.6676 27.3145 10.6087 27.1941 10.6002 27.1179L9.59485 26.083C5.52908 26.1947 2.12541 26.2638 2.01981 26.2122C1.7558 26.083 0.500128 24.6771 0.500128 24.6771C0.187113 24.3538 -0.0178266 24.0638 0.00553293 24.0294C0.0473153 23.9975 0.415595 24.3282 0.712655 24.6305L8.38449 22.9391C8.15865 22.665 8.04088 22.4242 8.10602 22.3579C8.19206 22.2756 8.50146 22.4859 8.79605 22.8067L8.82796 22.8484L10.3365 22.5067C10.1267 22.2535 10.0089 22.0127 10.074 21.9464C10.1601 21.8642 10.4695 22.0744 10.7641 22.3952L12.1338 22.1098L13.0025 21.6449C12.7423 21.3475 12.5742 21.0624 12.6393 20.9961C12.7254 20.9139 13.0348 21.1241 13.3294 21.4449L13.3478 21.4473L15.0618 20.5517C14.8016 20.2543 14.6335 19.9693 14.7171 19.9054C14.8031 19.8232 15.1125 20.0334 15.4071 20.3542L16.9823 19.515C14.8011 17.1787 13.9517 16.2397 12.3253 14.5215C10.6804 12.8008 9.21127 11.0287 8.0515 9.46679C5.83316 9.50715 1.44433 9.65056 1.44433 9.65056L0.437675 8.76555L5.58247 5.77909C5.37144 5.3945 5.20581 5.091 5.12489 4.85511C4.49525 4.09562 4.13075 3.5967 4.19589 3.53042C4.26104 3.46413 4.7374 3.82801 5.43712 4.48436C5.66674 4.59014 5.97614 4.80038 6.37272 5.0598L9.61986 -8.35686e-07L10.4753 1.03354C10.4753 1.03354 10.1113 5.7107 9.97482 7.84909C11.4259 9.0562 13.0734 10.4772 14.7773 12.037C16.8174 14.1669 17.7454 15.0789 19.642 17.0208L20.5408 15.4909C20.2302 15.1492 20.0462 14.8433 20.1322 14.761C20.1974 14.6947 20.4749 14.8632 20.7744 15.1471L21.7692 13.4613L21.7507 13.4588C21.4402 13.1171 21.2586 12.7928 21.3422 12.7289C21.4073 12.6626 21.7032 12.8336 21.9843 13.115L22.4897 12.2826L22.859 10.9255C22.546 10.6023 22.3644 10.2779 22.4505 10.1956C22.5156 10.1293 22.7428 10.2536 22.992 10.4932L23.3995 8.99127L23.3626 8.98633C23.0521 8.64467 22.8705 8.32028 22.9565 8.23804C23.0217 8.17175 23.2648 8.31684 23.514 8.55652L25.543 0.970552C25.2668 0.652247 24.9428 0.27127 24.9662 0.236893C25.0079 0.204983 25.278 0.428702 25.591 0.751945C25.591 0.751945 26.9512 2.07814 27.048 2.33492C27.091 2.43444 26.8604 5.83547 26.5802 9.88625L27.5855 10.9211C27.5855 10.9211 27.7329 10.9409 27.7833 10.9851L28.672 11.9106C28.7886 12.02 28.7614 12.2226 28.6152 12.3343L27.7131 13.1886C27.5828 13.3212 27.3936 13.3334 27.2795 13.2056L26.4067 12.301C26.2866 13.8977 26.1664 15.4944 26.0586 16.999L27.0959 18.0757C27.0959 18.0757 27.2432 18.0954 27.2936 18.1397L28.1823 19.0652C28.2989 19.1745 28.2718 19.3772 28.1255 19.4889L27.2234 20.3432C27.0931 20.4758 26.904 20.488 26.7898 20.3601L25.9011 19.4347C25.9011 19.4347 25.906 19.3978 25.8741 19.356C25.7551 21.0842 25.6486 22.4389 25.5966 23.1071C25.8753 23.407 26.1723 23.7093 26.4853 24.0326L26.5676 24.1186Z" fill="#1E3A8A"/>
</svg>
